<svg
        xmlns="http://www.w3.org/2000/svg"
        xmlns:xlink="http://www.w3.org/1999/xlink"
        width="30px" height="30px">

    <path fill-rule="evenodd"  fill="rgb(137, 137, 137)"
          d="M8.000,6.000 L12.000,6.000 C13.105,6.000 14.000,6.895 14.000,8.000 L14.000,12.000 C14.000,13.105 13.105,14.000 12.000,14.000 L8.000,14.000 C6.895,14.000 6.000,13.105 6.000,12.000 L6.000,8.000 C6.000,6.895 6.895,6.000 8.000,6.000 Z"/>
    <path fill-rule="evenodd"  fill="rgb(137, 137, 137)"
          d="M18.000,6.000 L22.000,6.000 C23.105,6.000 24.000,6.895 24.000,8.000 L24.000,12.000 C24.000,13.105 23.105,14.000 22.000,14.000 L18.000,14.000 C16.895,14.000 16.000,13.105 16.000,12.000 L16.000,8.000 C16.000,6.895 16.895,6.000 18.000,6.000 Z"/>
    <path fill-rule="evenodd"  fill="rgb(137, 137, 137)"
          d="M8.000,16.000 L12.000,16.000 C13.105,16.000 14.000,16.895 14.000,18.000 L14.000,22.000 C14.000,23.105 13.105,24.000 12.000,24.000 L8.000,24.000 C6.895,24.000 6.000,23.105 6.000,22.000 L6.000,18.000 C6.000,16.895 6.895,16.000 8.000,16.000 Z"/>
    <path fill-rule="evenodd"  fill="rgb(137, 137, 137)"
          d="M18.000,16.000 L22.000,16.000 C23.105,16.000 24.000,16.895 24.000,18.000 L24.000,22.000 C24.000,23.105 23.105,24.000 22.000,24.000 L18.000,24.000 C16.895,24.000 16.000,23.105 16.000,22.000 L16.000,18.000 C16.000,16.895 16.895,16.000 18.000,16.000 Z"/>
</svg>