<svg
        xmlns="http://www.w3.org/2000/svg"
        xmlns:xlink="http://www.w3.org/1999/xlink"
        width="30px" height="30px">
    <path fill-rule="evenodd"  fill="rgb(137, 137, 137)"
          d="M7.500,7.000 L22.500,7.000 C23.328,7.000 24.000,7.672 24.000,8.500 L24.000,9.500 C24.000,10.328 23.328,11.000 22.500,11.000 L7.500,11.000 C6.672,11.000 6.000,10.328 6.000,9.500 L6.000,8.500 C6.000,7.672 6.672,7.000 7.500,7.000 Z"/>
    <path fill-rule="evenodd"  fill="rgb(137, 137, 137)"
          d="M7.500,13.000 L22.500,13.000 C23.328,13.000 24.000,13.672 24.000,14.500 L24.000,15.500 C24.000,16.328 23.328,17.000 22.500,17.000 L7.500,17.000 C6.672,17.000 6.000,16.328 6.000,15.500 L6.000,14.500 C6.000,13.672 6.672,13.000 7.500,13.000 Z"/>
    <path fill-rule="evenodd"  fill="rgb(137, 137, 137)"
          d="M7.500,19.000 L22.500,19.000 C23.328,19.000 24.000,19.672 24.000,20.500 L24.000,21.500 C24.000,22.328 23.328,23.000 22.500,23.000 L7.500,23.000 C6.672,23.000 6.000,22.328 6.000,21.500 L6.000,20.500 C6.000,19.672 6.672,19.000 7.500,19.000 Z"/>
</svg>