<svg
        xmlns="http://www.w3.org/2000/svg"
        xmlns:xlink="http://www.w3.org/1999/xlink"
        width="50px" height="50px">
    <path fill-rule="evenodd"  fill="rgb(214, 200, 255)" d="M38,12h7c2.8,0,5,2.2,5,5v28c0,2.8-2.2,5-5,5h-7V12z"/>
    <path fill-rule="evenodd"  fill="rgb(149, 123, 255)" d="M5,0h28c2.8,0,5,2.2,5,5v45H5c-2.8,0-5-2.2-5-5V5C0,2.2,2.2,0,5,0z"/>
    <path fill-rule="evenodd"  fill="rgb(237, 231, 255)" d="M11,12l14.9,0c1.5,0,2.8,1,3.1,2.4c0.3,1.9-1.1,3.6-2.9,3.6l-14.9,0c-1.5,0-2.8-1-3.1-2.4C7.7,13.7,9.2,12,11,12z"/>
    <path fill-rule="evenodd"  fill="rgb(237, 231, 255)" d="M11,24l14.9,0c1.5,0,2.8,1,3.1,2.4c0.3,1.9-1.1,3.6-2.9,3.6l-14.9,0c-1.5,0-2.8-1-3.1-2.4C7.7,25.7,9.2,24,11,24z"/>
</svg>